<svg width="1280" height="571" viewBox="0 0 1280 571" fill="none" xmlns="http://www.w3.org/2000/svg">
<path d="M-27.3643 528.172C22.1455 496.275 154.321 441.886 286.945 479.508C419.57 517.129 443.77 523.409 538.42 492.144C608.332 469.051 616.391 409.872 699.452 386.738C782.513 363.605 889.9 413.173 1006.34 333.579C1114.02 258.729 1118.53 318.334 1206.72 287.666C1277.27 263.132 1323.79 220.025 1338.23 201.538L1254.88 779.159C1254.51 781.767 393.466 657.479 -37.008 595.009L-27.3643 528.172Z" fill="#8E57F4"/>
<path d="M-80.7765 553.679C-21.041 521.616 148.275 505.588 270.307 539.954C392.34 574.319 458.611 579.939 586.898 495.521C686.939 429.69 800.19 426.526 886.799 442.239C1120.15 502.622 1141.16 322.482 1324.15 256.721L1237.55 806.255L-80.7765 553.679Z" fill="#BF8CFF"/>
<path d="M18.3856 422.727C-2.98728 437.77 -29.9776 476.117 -19.5828 491.401C-9.18803 506.685 0.969974 470.769 32.1753 459.662C63.3806 448.556 73.9152 437.742 69.9584 425.787C66.0015 413.831 39.7585 407.685 18.3856 422.727Z" fill="#BF8CFF"/>
<path d="M1160.28 250.618C1104.09 264.655 1138.32 288.147 1183.21 284.278C1228.09 280.408 1245.44 223.128 1227.59 226.02C1209.75 228.912 1216.48 236.58 1160.28 250.618Z" fill="#FFCE6A"/>
</svg>
