<svg width="1280" height="832" viewBox="0 0 1280 832" fill="none" xmlns="http://www.w3.org/2000/svg">
<g clip-path="url(#clip0_1_437)">
<rect width="1280" height="832" fill="white"/>
<path d="M-4.79902 832.051C46.6105 801.442 183.278 750.142 318.673 789.817C454.067 829.491 478.784 836.152 576.506 807.013C648.687 785.489 658.072 727.132 743.748 705.814C829.424 684.496 938.694 735.51 1059.68 658.997C1171.6 587.01 1175.11 646.023 1266.19 617.352C1339.05 594.416 1387.6 552.668 1402.77 534.661L1306.36 1104.17C1305.92 1106.74 424.634 967.761 -15.955 897.95L-4.79902 832.051Z" fill="#8E57F4"/>
<path d="M65.0481 844.635C125.771 815.041 299.018 800.921 424.579 833.539C550.139 866.158 618.13 871.716 748.302 793.657C849.813 732.785 965.808 730.382 1054.79 745.446C1294.81 802.852 1313.61 635.059 1500.12 574.653L1419.7 1086.41L65.0481 844.635Z" fill="#BF8CFF"/>
<path d="M1258.61 81.1594C1302.31 119.436 1301.66 77.9672 1272.71 43.2354C1243.76 8.50362 1187.37 26.6877 1199.97 39.7269C1212.58 52.766 1214.92 42.8824 1258.61 81.1594Z" fill="#FFCE6A"/>
<ellipse cx="79.7466" cy="186.004" rx="13" ry="11" transform="rotate(29.7763 79.7466 186.004)" fill="#FFCE6A"/>
<ellipse cx="1234.75" cy="173.004" rx="13" ry="11" transform="rotate(29.7763 1234.75 173.004)" fill="#BF8CFF"/>
<path d="M23.01 755.189C1.07265 770.064 -26.6305 807.982 -15.9612 823.095C-5.29188 838.209 5.13441 802.693 37.1639 791.711C69.1933 780.729 80.0061 770.036 75.9448 758.214C71.8835 746.392 44.9473 740.314 23.01 755.189Z" fill="#BF8CFF"/>
</g>
<defs>
<clipPath id="clip0_1_437">
<rect width="1280" height="832" fill="white"/>
</clipPath>
</defs>
</svg>
