<svg width="1512" height="982" viewBox="0 0 1512 982" fill="none" xmlns="http://www.w3.org/2000/svg">
<g clip-path="url(#clip0_26_253)">
<rect width="1512" height="982" fill="white"/>
<g clip-path="url(#clip1_26_253)">
<rect width="1512" height="983" fill="url(#paint0_linear_26_253)"/>
<path d="M-27 895.72C28.2461 845.103 181.197 749.261 351.032 770.832C520.867 792.404 551.754 795.593 662.645 736.773C744.553 693.326 743.962 616.142 842.039 570.019C940.117 523.896 1081.03 565.762 1210.14 440.874C1329.32 323.792 1345.46 399.008 1448.5 342.241C1530.94 296.827 1580.52 232.491 1595 206V960.293C1595 963.699 513.667 976.85 -27 983V895.72Z" fill="#8E57F4"/>
<path d="M-106 986.03C-37.216 938.063 173.726 885.795 335.562 899.464C497.399 913.132 582.502 905.972 726.9 785.56C839.503 691.661 982.21 665.148 1095.22 665.148C1403.54 685.325 1391.68 479.649 1609.33 369L1617 1001L-106 986.03Z" fill="#BF8CFF"/>
<g filter="url(#filter0_d_26_253)">
<rect x="191" y="131" width="1131" height="721" rx="20" fill="white"/>
</g>
<path d="M647.23 213.114C647.23 215.865 646.563 218.256 645.23 220.287C643.897 222.318 641.951 223.884 639.391 224.984C636.852 226.085 633.762 226.635 630.123 226.635C628.515 226.635 626.939 226.529 625.394 226.317C623.871 226.106 622.4 225.799 620.982 225.397C619.586 224.974 618.253 224.455 616.983 223.842V214.701C619.184 215.674 621.469 216.553 623.839 217.335C626.209 218.118 628.557 218.51 630.885 218.51C632.493 218.51 633.784 218.298 634.757 217.875C635.751 217.452 636.471 216.87 636.915 216.129C637.359 215.389 637.582 214.542 637.582 213.59C637.582 212.427 637.19 211.432 636.407 210.607C635.624 209.782 634.545 209.009 633.17 208.29C631.816 207.571 630.282 206.798 628.568 205.973C627.489 205.465 626.314 204.852 625.045 204.132C623.775 203.392 622.569 202.493 621.427 201.435C620.284 200.377 619.343 199.097 618.602 197.594C617.883 196.071 617.523 194.251 617.523 192.135C617.523 189.363 618.158 186.994 619.427 185.026C620.697 183.058 622.506 181.556 624.854 180.519C627.224 179.461 630.017 178.932 633.233 178.932C635.646 178.932 637.941 179.218 640.121 179.789C642.321 180.339 644.617 181.143 647.008 182.201L643.834 189.85C641.697 188.983 639.782 188.316 638.089 187.851C636.397 187.364 634.672 187.121 632.916 187.121C631.689 187.121 630.641 187.322 629.774 187.724C628.906 188.104 628.25 188.655 627.806 189.374C627.362 190.072 627.14 190.887 627.14 191.818C627.14 192.918 627.457 193.849 628.092 194.611C628.748 195.351 629.721 196.071 631.012 196.769C632.324 197.467 633.953 198.282 635.899 199.213C638.269 200.334 640.29 201.509 641.961 202.736C643.654 203.942 644.955 205.37 645.865 207.021C646.775 208.65 647.23 210.681 647.23 213.114ZM687.442 190.517V226H680.016L678.714 221.461H678.207C677.445 222.667 676.493 223.651 675.35 224.413C674.208 225.175 672.949 225.736 671.573 226.095C670.198 226.455 668.77 226.635 667.289 226.635C664.75 226.635 662.538 226.19 660.655 225.302C658.772 224.392 657.302 222.985 656.244 221.081C655.207 219.176 654.688 216.701 654.688 213.654V190.517H664.369V211.242C664.369 213.781 664.824 215.696 665.733 216.986C666.643 218.277 668.093 218.922 670.082 218.922C672.049 218.922 673.594 218.478 674.715 217.589C675.837 216.68 676.62 215.357 677.064 213.622C677.529 211.866 677.762 209.729 677.762 207.211V190.517H687.442ZM707.279 176.615V188.104C707.279 189.438 707.236 190.76 707.152 192.072C707.088 193.384 707.004 194.399 706.898 195.119H707.279C708.21 193.659 709.479 192.421 711.087 191.405C712.695 190.368 714.78 189.85 717.34 189.85C721.318 189.85 724.544 191.405 727.02 194.516C729.496 197.626 730.733 202.186 730.733 208.195C730.733 212.236 730.162 215.632 729.02 218.383C727.877 221.112 726.279 223.175 724.227 224.572C722.175 225.947 719.794 226.635 717.086 226.635C714.483 226.635 712.431 226.169 710.929 225.238C709.426 224.307 708.21 223.26 707.279 222.096H706.612L704.994 226H697.599V176.615H707.279ZM714.229 197.594C712.537 197.594 711.193 197.943 710.199 198.642C709.204 199.34 708.474 200.387 708.009 201.784C707.564 203.18 707.321 204.947 707.279 207.084V208.131C707.279 211.58 707.787 214.225 708.802 216.066C709.818 217.886 711.669 218.795 714.356 218.795C716.345 218.795 717.922 217.875 719.085 216.034C720.27 214.193 720.863 211.538 720.863 208.068C720.863 204.598 720.27 201.985 719.085 200.229C717.901 198.472 716.282 197.594 714.229 197.594ZM735.875 241.615C734.775 241.615 733.632 241.531 732.447 241.361C731.262 241.213 730.278 241.033 729.496 240.822V233.205C730.278 233.416 731.019 233.564 731.717 233.649C732.394 233.755 733.167 233.808 734.034 233.808C735.346 233.808 736.457 233.437 737.367 232.697C738.277 231.977 738.731 230.549 738.731 228.412V190.517H748.412V229.84C748.412 231.999 747.999 233.966 747.174 235.744C746.349 237.542 745.016 238.97 743.175 240.028C741.334 241.086 738.901 241.615 735.875 241.615ZM738.319 181.344C738.319 179.525 738.827 178.287 739.842 177.631C740.879 176.954 742.127 176.615 743.587 176.615C745.026 176.615 746.264 176.954 747.301 177.631C748.338 178.287 748.856 179.525 748.856 181.344C748.856 183.143 748.338 184.391 747.301 185.089C746.264 185.766 745.026 186.105 743.587 186.105C742.127 186.105 740.879 185.766 739.842 185.089C738.827 184.391 738.319 183.143 738.319 181.344ZM773.231 189.85C776.511 189.85 779.335 190.485 781.705 191.754C784.075 193.003 785.905 194.822 787.196 197.213C788.486 199.604 789.132 202.524 789.132 205.973V210.67H766.249C766.354 213.4 767.169 215.548 768.692 217.113C770.237 218.658 772.374 219.43 775.104 219.43C777.368 219.43 779.441 219.197 781.324 218.732C783.207 218.266 785.143 217.568 787.132 216.637V224.127C785.376 224.995 783.535 225.63 781.61 226.032C779.706 226.434 777.389 226.635 774.659 226.635C771.104 226.635 767.952 225.979 765.201 224.667C762.472 223.355 760.324 221.356 758.758 218.668C757.214 215.981 756.441 212.596 756.441 208.512C756.441 204.365 757.14 200.916 758.536 198.166C759.954 195.394 761.922 193.32 764.439 191.945C766.957 190.548 769.888 189.85 773.231 189.85ZM773.294 196.737C771.411 196.737 769.846 197.34 768.597 198.546C767.37 199.752 766.661 201.646 766.471 204.228H780.055C780.034 202.789 779.769 201.509 779.261 200.387C778.775 199.266 778.034 198.377 777.04 197.721C776.066 197.065 774.818 196.737 773.294 196.737ZM811.412 226.635C807.9 226.635 804.906 226 802.43 224.73C799.955 223.44 798.071 221.451 796.781 218.764C795.49 216.076 794.845 212.638 794.845 208.449C794.845 204.111 795.575 200.578 797.035 197.848C798.516 195.097 800.558 193.077 803.16 191.786C805.784 190.495 808.82 189.85 812.269 189.85C814.723 189.85 816.839 190.093 818.617 190.58C820.415 191.046 821.981 191.606 823.314 192.262L820.458 199.752C818.934 199.139 817.516 198.642 816.205 198.261C814.893 197.859 813.581 197.658 812.269 197.658C810.576 197.658 809.169 198.06 808.048 198.864C806.926 199.647 806.091 200.832 805.541 202.418C804.99 204.005 804.715 205.994 804.715 208.385C804.715 210.734 805.012 212.681 805.604 214.225C806.196 215.77 807.053 216.923 808.175 217.685C809.296 218.425 810.661 218.795 812.269 218.795C814.279 218.795 816.067 218.531 817.633 218.002C819.199 217.452 820.722 216.69 822.203 215.717V224C820.722 224.931 819.167 225.598 817.538 226C815.93 226.423 813.888 226.635 811.412 226.635ZM845.404 218.922C846.462 218.922 847.488 218.817 848.482 218.605C849.498 218.393 850.503 218.129 851.498 217.812V225.016C850.461 225.482 849.17 225.862 847.625 226.159C846.102 226.476 844.431 226.635 842.611 226.635C840.495 226.635 838.591 226.296 836.898 225.619C835.226 224.921 833.904 223.725 832.931 222.033C831.979 220.319 831.502 217.938 831.502 214.892V197.785H826.869V193.69L832.201 190.453L834.994 182.963H841.183V190.517H851.117V197.785H841.183V214.892C841.183 216.246 841.563 217.261 842.325 217.938C843.108 218.594 844.134 218.922 845.404 218.922ZM883.458 215.463C883.458 217.875 882.887 219.917 881.744 221.588C880.623 223.239 878.941 224.498 876.698 225.365C874.455 226.212 871.662 226.635 868.319 226.635C865.843 226.635 863.717 226.476 861.939 226.159C860.183 225.841 858.406 225.312 856.607 224.572V216.574C858.533 217.441 860.596 218.161 862.796 218.732C865.018 219.282 866.965 219.557 868.636 219.557C870.519 219.557 871.863 219.282 872.667 218.732C873.492 218.161 873.905 217.42 873.905 216.51C873.905 215.918 873.736 215.389 873.397 214.923C873.08 214.437 872.381 213.897 871.302 213.305C870.223 212.691 868.53 211.898 866.224 210.924C864.002 209.993 862.172 209.052 860.733 208.1C859.316 207.147 858.258 206.026 857.56 204.735C856.882 203.424 856.544 201.763 856.544 199.752C856.544 196.473 857.813 194.008 860.353 192.357C862.913 190.686 866.33 189.85 870.604 189.85C872.805 189.85 874.899 190.072 876.888 190.517C878.898 190.961 880.961 191.67 883.077 192.643L880.157 199.625C878.401 198.864 876.74 198.24 875.174 197.753C873.63 197.266 872.053 197.023 870.445 197.023C869.028 197.023 867.959 197.213 867.24 197.594C866.52 197.975 866.161 198.557 866.161 199.34C866.161 199.911 866.34 200.419 866.7 200.863C867.081 201.308 867.8 201.805 868.858 202.355C869.938 202.884 871.514 203.572 873.587 204.418C875.597 205.243 877.343 206.111 878.824 207.021C880.305 207.909 881.448 209.02 882.252 210.353C883.056 211.665 883.458 213.368 883.458 215.463Z" fill="#4A4A4A"/>
</g>
</g>
<defs>
<filter id="filter0_d_26_253" x="176" y="116" width="1161" height="751" filterUnits="userSpaceOnUse" color-interpolation-filters="sRGB">
<feFlood flood-opacity="0" result="BackgroundImageFix"/>
<feColorMatrix in="SourceAlpha" type="matrix" values="0 0 0 0 0 0 0 0 0 0 0 0 0 0 0 0 0 0 127 0" result="hardAlpha"/>
<feOffset/>
<feGaussianBlur stdDeviation="7.5"/>
<feComposite in2="hardAlpha" operator="out"/>
<feColorMatrix type="matrix" values="0 0 0 0 0 0 0 0 0 0 0 0 0 0 0 0 0 0 0.25 0"/>
<feBlend mode="normal" in2="BackgroundImageFix" result="effect1_dropShadow_26_253"/>
<feBlend mode="normal" in="SourceGraphic" in2="effect1_dropShadow_26_253" result="shape"/>
</filter>
<linearGradient id="paint0_linear_26_253" x1="756" y1="0" x2="756" y2="983" gradientUnits="userSpaceOnUse">
<stop stop-color="#ECDAFE"/>
<stop offset="1" stop-color="white"/>
</linearGradient>
<clipPath id="clip0_26_253">
<rect width="1512" height="982" fill="white"/>
</clipPath>
<clipPath id="clip1_26_253">
<rect width="1512" height="983" fill="white"/>
</clipPath>
</defs>
</svg>
